<svg xmlns="http://www.w3.org/2000/svg" version="1.1" xmlns:xlink="http://www.w3.org/1999/xlink" xmlns:svgjs="http://svgjs.dev/svgjs" width="2000" height="2250" viewBox="0 0 2000 2250"><g transform="matrix(1,0,0,1,3.410605131648481e-13,0)"><svg viewBox="0 0 320 360" data-background-color="#fafafa" preserveAspectRatio="xMidYMid meet" height="2250" width="2000" xmlns="http://www.w3.org/2000/svg" xmlns:xlink="http://www.w3.org/1999/xlink"><g id="tight-bounds" transform="matrix(1,0,0,1,0,0)"><svg viewBox="0 0 320 360" height="360" width="320"><g><svg></svg></g><g><svg viewBox="0 0 320 360" height="360" width="320"><g><path xmlns="http://www.w3.org/2000/svg" d="M20.961 227.22l3.726 4.658-1.863-6.056c-0.466-2.795-3.726 0.466-1.863 1.398M25.153 224.425c1.397 2.329 2.795 4.658 2.795 6.987 0 3.261 2.795 4.658 5.123 5.589-3.261-3.726-5.124-13.974-7.918-12.576M204.017 26.929c7.918 0 15.371-0.932 23.756 0.931 20.495 5.124 37.729 15.371 49.374 29.811l32.606 52.169c1.397 13.042 4.192 27.482 3.726 43.319 3.261 0 2.795-4.658 6.521-5.59-3.726 9.316-5.59 20.961-6.521 34.469-2.329-7.453 0-18.632 0.466-24.687-3.261 5.124-5.124 1.397-5.124-0.932 0.466-3.726-1.397-3.261-2.795-4.658-5.124-4.658-8.384-9.782-12.11-17.7 2.329-6.055 2.795-14.905-4.658-19.563-2.329-1.397-5.124-3.726-6.521-7.453-1.863-5.124-5.124-11.179-4.193-19.097 0.466-2.329-6.987 5.124-11.179 1.863-18.166-12.576-36.332-27.016-58.224-39.127-11.645 0-20.029-4.192-24.221-9.316-3.726-4.658-0.932-10.713 4.658-11.179 3.261 0 6.987-0.932 9.782 0.932 0.466-1.863 2.329-4.192 4.657-4.192M157.904 16.215l0.932 0.466c4.658 0.932 6.987 7.453 12.11 5.124 0 3.261 0.466 6.521-0.466 8.85-1.397 3.726-5.59 3.726-8.85 3.726-31.208-1.863-49.374 11.179-68.471 22.358-5.124 3.261-10.713 5.59-14.906 9.782-20.029 18.632-41.921 35.866-47.045 70.335l-4.192 38.195c-0.466 4.192-5.124 8.384-4.192 13.508l3.26 22.824c-3.261-3.261-5.124 0.932-4.192 2.795 0.466 1.397 2.329 6.055 5.124 1.863 3.726 6.987 7.453 20.495 12.576 26.55 15.837 18.632 36.332 35.4 53.101 52.169 4.192-0.932 7.453-0.932 8.384-3.727 1.397 2.795-1.397 5.59-3.726 6.056 7.453 4.658 15.837 8.85 27.016 9.781 14.44 0.932 27.948 3.261 40.524 6.522 6.521-1.863 13.042-2.795 20.029-3.261 2.329 0 3.726-3.726 6.521-4.658l0.466-4.658c2.795 4.192 2.329-1.397 0.466-4.192 3.261 2.795 4.192 5.124 5.589 6.987 0-1.397 3.726-6.521 3.727-0.466l0.931-6.055c1.397-0.932 1.863 5.124 3.261 0.931 1.397-4.192 4.192-0.932 6.987-2.329-0.932 1.863-0.466 5.59 2.794 3.261l3.727-3.261c2.329 5.59 6.055 3.261 7.918 2.329 20.495-13.042 40.99-28.413 60.553-43.784l-0.466 6.055 2.329-7.453c2.329 2.329 4.192 0.466 5.124-0.931 2.795-4.658 6.521-9.316 12.577-13.508-7.453 20.029-16.303 35.866-27.482 48.908l-4.658 5.59c0 3.261-0.932 7.453-4.658 7.918-1.863 0.466-5.59-0.932-8.384 1.863-1.397 1.863 3.261 5.59-0.466 2.795-3.261-2.329-6.521 0-10.248 0.932-2.795 0.932 1.863 3.726 2.795 5.589 0.932 1.863 1.863 3.726 1.398 6.056l-5.124-5.59c-6.055 3.261-9.782 9.316-14.906 13.974-2.329 1.863-1.397 5.124-1.397 7.918-3.261 0-6.987-0.932-8.85 0.932-1.397 1.863-0.932 4.658-0.932 7.453-4.658-0.466-5.124-7.453-9.315-6.056-4.192 0.932-8.85 1.397-12.577 3.727 2.795 5.59-4.658 2.329-3.726 3.26-6.987-4.192-13.042-7.453-20.495-4.658-15.837-5.124-35.4-2.795-49.84-0.931 0-2.329 0.466-4.658-0.466-5.124-0.932 2.329-3.726 1.397-3.26 1.397-8.85-6.055-17.7-9.782-27.016-14.905-8.384 0.932-16.303-3.261-18.632-5.59-6.521-6.055-13.974-2.795-20.029-4.192-13.042-3.261-17.7-16.769-19.098-26.084-0.932-4.658-4.658-6.521-6.055-6.056-6.055-19.563-15.371-37.263-22.824-55.429-1.863-4.658-1.397-9.316-1.397-14.44 2.329 0.932 4.658 0.466 4.192-2.794-2.329-15.371-7.918-27.016-13.974-38.195 3.261-15.837 3.726-34.469 11.179-48.443 6.521-12.576 18.632-19.098 27.016-29.811 2.795-3.726 2.795-8.85 5.59-12.11 9.316-9.316 18.632-19.098 28.879-27.482 4.658-3.726 10.247 0 17.234-1.397 2.329-8.384 11.645-15.837 20.495-13.508 3.726 0.932 11.179-8.85 13.508-9.782 3.726-1.397 1.863 3.726 1.863 6.987 8.85-6.987 20.961-10.713 32.14-14.906" fill="#ffffff" fill-rule="nonzero" stroke="none" stroke-width="1" stroke-linecap="butt" stroke-linejoin="miter" stroke-miterlimit="10" stroke-dasharray="" stroke-dashoffset="0" font-family="none" font-weight="none" font-size="none" text-anchor="none" style="mix-blend-mode: normal" data-fill-palette-color="tertiary"></path></g><g transform="matrix(1,0,0,1,64,151.74822842851188)"><svg viewBox="0 0 192 56.50354314297623" height="56.50354314297623" width="192"><g><svg viewBox="0 0 192 56.50354314297623" height="56.50354314297623" width="192"><g><svg viewBox="0 0 192 56.50354314297623" height="56.50354314297623" width="192"><g><svg viewBox="0 0 192 56.50354314297623" height="56.50354314297623" width="192"><g id="textblocktransform"><svg viewBox="0 0 192 56.50354314297623" height="56.50354314297623" width="192" id="textblock"><g><svg viewBox="0 0 192 56.50354314297623" height="56.50354314297623" width="192"><g transform="matrix(1,0,0,1,0,0)"><svg width="192" viewBox="1.5 -34.900001525878906 119.94000244140625 35.30000305175781" height="56.50354314297623" data-palette-color="#130912"><path d="M15.65 0.4Q8.55 0.4 5.03-3.7 1.5-7.8 1.5-16.98 1.5-26.15 5.38-30.53 9.25-34.9 16.43-34.9 23.6-34.9 27.13-31 30.65-27.1 30.65-17.95 30.65-8.8 26.7-4.2 22.75 0.4 15.65 0.4ZM10.8-26.65Q9-24.05 9-17.6 9-11.15 10.9-8.2 12.8-5.25 16.13-5.25 19.45-5.25 21.3-8.03 23.15-10.8 23.15-17.25L23.15-17.25Q23.15-29.25 15.95-29.25L15.95-29.25Q12.6-29.25 10.8-26.65ZM43.45-20.9L43.45-20.9Q40.15-20.9 40.15-18.95L40.15-18.95Q40.15-17.1 43.6-16.2L43.6-16.2 47.55-15.15Q53.65-13.55 53.65-8.1L53.65-8.1Q53.65-4.35 51.02-1.98 48.4 0.4 42.67 0.4 36.95 0.4 33.75-1.2L33.75-1.2Q33.7-1.75 33.7-2.3L33.7-2.3Q33.7-5.05 34.8-7.25L34.8-7.25 38.95-7.25Q39.6-6.05 39.8-4.75L39.8-4.75Q40.8-4.45 42.65-4.45L42.65-4.45Q47.05-4.45 47.05-6.95L47.05-6.95Q47.05-7.75 46.45-8.28 45.85-8.8 44.1-9.3L44.1-9.3 40.15-10.45Q37.1-11.3 35.4-12.98 33.7-14.65 33.7-17.93 33.7-21.2 36.35-23.3 39-25.4 43.92-25.4 48.85-25.4 52.25-23.95L52.25-23.95Q52.3-23.45 52.3-22.95L52.3-22.95Q52.3-20.35 51.2-18.15L51.2-18.15 47.1-18.15Q46.45-19.3 46.25-20.55L46.25-20.55Q44.85-20.9 43.45-20.9ZM67.75-20.3L67.75-20.3Q63.15-20.3 63.15-12.4L63.15-12.4Q63.15-8.4 64.42-6.83 65.7-5.25 68.1-5.25L68.1-5.25Q71.9-5.25 74.8-5.95L74.8-5.95 76.3-2.1Q74.7-1.05 72-0.33 69.3 0.4 66.75 0.4L66.75 0.4Q55.95 0.4 55.95-12.1L55.95-12.1Q55.95-19.4 59.7-22.6L59.7-22.6Q63.05-25.4 67.85-25.4 72.65-25.4 75.85-23.6L75.85-23.6Q75.9-23.1 75.9-22.65L75.9-22.65Q75.9-19.8 74.6-17.25L74.6-17.25 70.2-17.25Q69.5-18.5 69.35-20.25L69.35-20.25Q68.75-20.3 67.75-20.3ZM79.49-21.3L79.49-21.3Q79.49-22.05 79.54-22.9L79.54-22.9Q84.19-25.4 89.54-25.4 94.89-25.4 97.22-23.38 99.54-21.35 99.54-16.65L99.54-16.65 99.54-6Q101.29-5.65 102.29-5.15L102.29-5.15 102.29-0.8Q99.74 0.4 94.99 0.4L94.99 0.4Q94.49-0.9 94.14-2.75L94.14-2.75Q91.99 0.4 86.34 0.4L86.34 0.4Q82.99 0.4 80.62-1.55 78.24-3.5 78.24-6.85 78.24-10.2 80.47-12.13 82.69-14.05 87.09-14.05L87.09-14.05 92.54-14.05 92.54-16.45Q92.54-20.35 88.39-20.35L88.39-20.35Q86.84-20.35 85.84-20.05L85.84-20.05Q85.74-17.95 85.24-16.8L85.24-16.8 80.34-16.8Q79.49-18.55 79.49-21.3ZM88.49-4.7L88.49-4.7Q91.04-4.7 92.54-6.2L92.54-6.2 92.54-10.3 89.04-10.3Q85.44-10.3 85.44-7.55L85.44-7.55Q85.44-6.3 86.22-5.5 86.99-4.7 88.49-4.7ZM119.09-18.85L119.09-18.85Q115.29-18.85 113.84-17.4L113.84-17.4 113.84-5.95Q117.89-5.2 119.39-3.85L119.39-3.85 118.89 0 104.59 0 104.09-3.85Q104.79-4.8 106.84-5.55L106.84-5.55 106.84-19.45Q105.09-20.05 104.09-21.15L104.09-21.15 104.59-25Q107.34-25.6 109.54-25.6 111.74-25.6 113.19-25.5L113.19-25.5 113.19-22.35Q114.34-23.7 116.14-24.58 117.94-25.45 119.42-25.45 120.89-25.45 121.44-25.2L121.44-25.2 121.29-18.7Q120.29-18.85 119.09-18.85Z" opacity="1" transform="matrix(1,0,0,1,0,0)" fill="#ffffff" class="undefined-text-0" data-fill-palette-color="primary" id="text-0"></path></svg></g></svg></g></svg></g></svg></g><g></g></svg></g></svg></g></svg></g></svg></g><defs></defs></svg><rect width="320" height="360" fill="none" stroke="none" visibility="hidden"></rect></g></svg></g></svg>